# xmcd
#
# Track frame offsets:
#	150
#	15415
#	33094
#	48882
#	63977
#	79650
#	96963
#	114638
#	132070
#	148798
#	163520
#	179715
#
# Disc length: 2613 seconds
#
# Revision: 0
# Processed by: cddbd v1.5.1PL0 Copyright (c) Steve Scherf et al.
# Submitted via: audiograbber 1.83.01
#
DISCID=970a330c
DTITLE=Craig Morgan - My Kind Of Livin'
DYEAR=2005
DGENRE=Country
TTITLE0=Craig Morgan - That's What I Love About Sunday
TTITLE1=Craig Morgan - I Got You
TTITLE2=Craig Morgan - That's When I'll Believe You're Gone
TTITLE3=Craig Morgan - I'm Country
TTITLE4=Craig Morgan - Lotta Man In That Little Boy
TTITLE5=Craig Morgan - If You Like That
TTITLE6=Craig Morgan - Ain't The Way I Wanna Go Out
TTITLE7=Craig Morgan - Redneck Yacht Club
TTITLE8=Craig Morgan - Rain For The Roses
TTITLE9=Craig Morgan - Blame Me
TTITLE10=Craig Morgan - Cowboy And Clown
TTITLE11=Craig Morgan - In My Neighborhood
EXTD=
EXTT0=
EXTT1=
EXTT2=
EXTT3=
EXTT4=
EXTT5=
EXTT6=
EXTT7=
EXTT8=
EXTT9=
EXTT10=
EXTT11=
PLAYORDER=
